<svg width="40" height="40" viewBox="0 0 40 40" fill="none" xmlns="http://www.w3.org/2000/svg">
<g clip-path="url(#clip0_70_387)">
<path d="M21.0263 16.742L21.2963 16.652C21.3143 16.634 21.3503 16.634 21.3683 16.634C21.4403 16.634 21.5123 16.688 21.5123 16.778V25.814C21.5123 25.94 21.4043 26.03 21.2963 26.03H21.0623C20.9363 26.03 20.8463 25.94 20.8463 25.814V23.132C20.8463 22.988 20.7203 22.934 20.5403 22.934C20.0183 22.934 19.0103 23.366 18.7583 23.474C18.7403 23.492 18.7043 23.492 18.6863 23.492L18.6503 23.51C18.5423 23.51 18.4883 23.456 18.4883 23.348V14.078C18.4883 13.952 18.5783 13.862 18.7043 13.862H18.9383C19.0463 13.862 19.1543 13.952 19.1543 14.078V17.084C19.1543 17.156 19.2263 17.174 19.3343 17.174C19.8023 17.174 20.9543 16.76 20.9543 16.76C20.9723 16.76 20.9903 16.742 21.0263 16.742ZM19.1543 19.298V21.152C19.1543 21.224 19.2443 21.26 19.3703 21.26C19.8203 21.26 20.8463 20.846 20.8463 20.522V18.668C20.8463 18.596 20.7923 18.578 20.6843 18.578C20.2523 18.578 19.1543 19.046 19.1543 19.298Z" fill="white"/>
</g>
<defs>
<clipPath id="clip0_70_387">
<rect width="40" height="40" fill="white"/>
</clipPath>
</defs>
</svg>
