<svg width="40" height="40" viewBox="0 0 40 40" fill="none" xmlns="http://www.w3.org/2000/svg">
<g clip-path="url(#clip0_6_1080)">
<path d="M20.9054 14.68C21.9774 14.68 22.7294 15.288 22.7294 16.232C22.7294 16.84 22.1214 19.32 19.0654 19.32C18.5374 19.32 18.0734 19.16 17.7534 18.872V31H17.2734V17.768C17.2734 16.808 18.1374 14.68 20.9054 14.68ZM20.4734 17.848C21.7694 17 22.1534 16.552 22.1534 16.184C22.1534 15.768 21.7694 15.448 21.3694 15.448C20.4894 15.448 17.8174 16.904 17.8174 17.816C17.8174 18.264 18.2334 18.6 18.6654 18.6C19.0654 18.6 19.6414 18.408 20.4734 17.848Z" fill="white"/>
</g>
<defs>
<clipPath id="clip0_6_1080">
<rect width="40" height="40" fill="white"/>
</clipPath>
</defs>
</svg>
